<?xml version="1.0" standalone="no"?>
<!DOCTYPE svg PUBLIC "-//W3C//DTD SVG 20010904//EN"
 "http://www.w3.org/TR/2001/REC-SVG-20010904/DTD/svg10.dtd">
<svg version="1.0" xmlns="http://www.w3.org/2000/svg"
 width="512.000000pt" height="512.000000pt" viewBox="0 0 512.000000 512.000000"
 preserveAspectRatio="xMidYMid meet">
<metadata>
Created by potrace 1.16, written by Peter Selinger 2001-2019
</metadata>
<g transform="translate(0.000000,512.000000) scale(0.100000,-0.100000)"
fill="#000000" stroke="none">
<path d="M3335 3964 c-125 -20 -323 -69 -636 -158 -459 -131 -677 -174 -988
-197 -166 -12 -474 -7 -626 11 -225 26 -586 98 -858 171 -104 28 -191 48 -194
46 -12 -12 287 -157 487 -237 429 -170 928 -256 1345 -231 325 20 546 64 1012
202 540 159 719 187 978 155 299 -38 510 -114 750 -270 187 -123 337 -259 473
-434 23 -30 42 -47 42 -39 0 29 -100 212 -163 300 -245 340 -581 559 -1017
664 -91 22 -132 26 -310 29 -145 2 -231 -1 -295 -12z"/>
<path d="M20 2895 c0 -9 317 -242 401 -295 187 -116 447 -225 679 -286 458
-120 929 -87 1334 92 55 25 122 58 150 75 l51 31 -45 -47 c-97 -102 -295 -230
-460 -298 -137 -57 -261 -94 -519 -155 -133 -32 -242 -62 -243 -67 0 -6 66
-36 148 -67 692 -269 1389 -168 1855 269 l72 68 -39 -75 c-51 -99 -165 -249
-250 -331 -91 -86 -195 -162 -387 -283 -87 -54 -155 -102 -150 -106 17 -16
246 -60 369 -72 299 -27 614 43 834 187 41 27 121 94 177 151 97 96 101 99 79
55 -69 -134 -189 -293 -367 -483 -60 -64 -109 -119 -109 -122 0 -24 260 23
415 76 349 118 622 327 832 638 78 116 187 349 171 366 -3 3 -30 -26 -59 -63
-175 -223 -383 -419 -595 -558 -88 -58 -314 -180 -314 -170 0 3 17 40 39 83
21 42 50 109 64 149 31 87 67 265 67 335 l0 52 -91 -97 c-248 -264 -541 -396
-919 -414 l-125 -6 77 83 c146 157 241 320 284 486 23 93 31 164 18 164 -4 0
-46 -25 -94 -55 -111 -70 -308 -164 -427 -204 -230 -76 -549 -108 -813 -81
-166 17 -164 14 -42 74 224 111 413 264 511 415 40 62 67 119 59 126 -2 2 -42
-9 -90 -24 -489 -164 -1003 -159 -1523 14 -88 29 -189 67 -225 83 l-65 31 80
0 c264 3 574 53 785 127 83 30 115 50 62 40 -134 -25 -244 -31 -542 -31 -364
1 -409 5 -842 80 -265 47 -278 48 -278 40z"/>
</g>
</svg>
